<svg width="22" height="18" viewBox="0 0 22 18" fill="none" xmlns="http://www.w3.org/2000/svg">
<path d="M18.66 0.990013C16.02 -0.809987 12.76 0.0300133 11 2.09001C9.24 0.0300133 5.98 -0.819987 3.34 0.990013C1.94 1.95001 1.06 3.57001 1 5.28001C0.86 9.16001 4.3 12.27 9.55 17.04L9.65 17.13C10.41 17.82 11.58 17.82 12.34 17.12L12.45 17.02C17.7 12.26 21.13 9.15001 21 5.27001C20.94 3.57001 20.06 1.95001 18.66 0.990013V0.990013ZM11.1 15.55L11 15.65L10.9 15.55C6.14 11.24 3 8.39001 3 5.50001C3 3.50001 4.5 2.00001 6.5 2.00001C8.04 2.00001 9.54 2.99001 10.07 4.36001H11.94C12.46 2.99001 13.96 2.00001 15.5 2.00001C17.5 2.00001 19 3.50001 19 5.50001C19 8.39001 15.86 11.24 11.1 15.55Z" fill="white"/>
</svg>
